# xmcd
#
# Track frame offsets:
#	150
#	23187
#	38896
#	57305
#	76343
#	100110
#	113104
#	130438
#	152046
#	164433
#	180133
#	195676
#	209759
#
# Disc length: 3002 seconds
#
# Revision: 0
# Processed by: cddbd v1.5.2PL0 Copyright (c) Steve Scherf et al.
# Submitted via: EasyCDDAExtractor 16.1.0.1
#
DISCID=ac0bb80d
DTITLE=Малолетка - памяти ПЕТЛЮРЫ
DYEAR=2007
DGENRE=Chanson
TTITLE0=Суд девушки
TTITLE1=Туманы
TTITLE2=Стена
TTITLE3=Ночь на кладбище
TTITLE4=Белая акация
TTITLE5=Маленький мальчик
TTITLE6=Два дома
TTITLE7=Алёшка
TTITLE8=15 лет
TTITLE9=Прокурор
TTITLE10=Моя милая мама
TTITLE11=Дожди
TTITLE12=Цыганка
EXTD=
EXTT0=
EXTT1=
EXTT2=
EXTT3=
EXTT4=
EXTT5=
EXTT6=
EXTT7=
EXTT8=
EXTT9=
EXTT10=
EXTT11=
EXTT12=
PLAYORDER=
